<svg width="38" height="35" viewBox="0 0 38 35" fill="none" xmlns="http://www.w3.org/2000/svg">
<path fill-rule="evenodd" clip-rule="evenodd" d="M1.83167 34.6504H1.71368C1.71368 34.5935 1.6852 34.5041 1.6852 34.4756C1.6852 34.4472 1.6852 34.3902 1.59975 34.3902H1.42479V34.6504H1.33934V34.0407H1.59975C1.71775 34.0407 1.80319 34.0691 1.80319 34.187C1.80319 34.2724 1.77471 34.3049 1.74623 34.3333C1.77471 34.3618 1.80319 34.3902 1.80319 34.4512V34.5691C1.80319 34.5976 1.80319 34.5976 1.83167 34.5976V34.6504ZM1.71775 34.2154C1.71775 34.1301 1.66078 34.1301 1.6323 34.1301H1.42886V34.3049H1.60382C1.65671 34.3008 1.71775 34.2724 1.71775 34.2154V34.2154ZM2.21008 34.3293C2.21008 33.9797 1.91712 33.6911 1.53872 33.6911C1.18879 33.6911 0.899902 33.9837 0.899902 34.3293C0.899902 34.7073 1.19286 35 1.53872 35C1.92119 35 2.21008 34.7073 2.21008 34.3293ZM2.12463 34.3293C2.12463 34.6504 1.86423 34.8821 1.54278 34.8821C1.22134 34.8821 0.989418 34.6504 0.989418 34.3293C0.989418 34.0366 1.22134 33.7764 1.54278 33.7764C1.86423 33.7764 2.12463 34.0406 2.12463 34.3293ZM37.9999 22.5772C37.9999 23.4512 37.4465 23.8577 36.4578 23.8577H34.5658V22.9837H36.4578C36.6328 22.9837 36.7792 22.9553 36.8362 22.8984C36.8932 22.8415 36.9542 22.752 36.9542 22.6382C36.9542 22.5203 36.8972 22.4065 36.8362 22.3455C36.7792 22.2886 36.6612 22.2602 36.4863 22.2602C35.583 22.2317 34.4478 22.2886 34.4478 21.0081C34.4478 20.4268 34.8262 19.7846 35.8434 19.7846H37.7924V20.6585H35.9858C35.8109 20.6585 35.6929 20.6585 35.6074 20.7154C35.522 20.8008 35.4609 20.8902 35.4609 21.0366C35.4609 21.1829 35.5464 21.2683 35.6644 21.3293C35.7824 21.3577 35.8963 21.3862 36.0428 21.3862H36.5677C37.121 21.3862 37.471 21.5041 37.7029 21.7073C37.8819 21.9065 37.9999 22.1707 37.9999 22.5772V22.5772ZM33.8944 21.7033C33.6625 21.5 33.3126 21.3821 32.7592 21.3821H32.2343C32.0878 21.3821 31.9739 21.3537 31.8559 21.3252C31.7379 21.2683 31.6525 21.1789 31.6525 21.0325C31.6525 20.8862 31.6809 20.8008 31.7989 20.7114C31.8844 20.6545 32.0024 20.6545 32.1773 20.6545H33.9839V19.7805H32.0349C30.9852 19.7805 30.6352 20.4187 30.6352 21.0041C30.6352 22.2846 31.7705 22.2276 32.6737 22.2561C32.8487 22.2561 32.9667 22.2846 33.0237 22.3415C33.0806 22.3984 33.1417 22.5163 33.1417 22.6341C33.1417 22.752 33.0847 22.8374 33.0237 22.8943C32.9382 22.9512 32.8202 22.9797 32.6453 22.9797H30.7532V23.8537H32.6453C33.634 23.8537 34.1874 23.4472 34.1874 22.5732C34.1833 22.1707 34.0694 21.9065 33.8944 21.7033V21.7033ZM30.1673 23.0122H27.8684V22.1992H30.1104V21.3862H27.8684V20.6301H30.1673V19.7846H26.9082V23.8577H30.1673V23.0122V23.0122ZM25.8543 19.9878C25.5329 19.813 25.1545 19.7846 24.6621 19.7846H22.4202V23.8577H23.4089V22.374H24.4587C24.8086 22.374 25.0121 22.4024 25.1585 22.5488C25.3335 22.752 25.3335 23.1016 25.3335 23.3618V23.8577H26.2938V23.0691C26.2938 22.6911 26.2653 22.5163 26.1473 22.313C26.0618 22.1951 25.8869 22.0528 25.6509 21.9634C25.9113 21.878 26.3507 21.5285 26.3507 20.8862C26.3507 20.4228 26.1758 20.1626 25.8543 19.9878V19.9878ZM20.3247 19.7846H17.208L15.9547 21.1219L14.7626 19.7846H10.832V23.8577H14.7056L15.9588 22.5203L17.151 23.8577H19.043V22.4919H20.2637C21.11 22.4919 21.9523 22.2602 21.9523 21.126C21.9563 20.0163 21.0815 19.7846 20.3247 19.7846ZM25.069 21.4715C24.9225 21.5285 24.7761 21.5285 24.6052 21.5285L23.413 21.5569V20.626H24.6052C24.7801 20.626 24.9551 20.626 25.069 20.7114C25.187 20.7683 25.2725 20.8862 25.2725 21.061C25.2725 21.2398 25.187 21.3821 25.069 21.4715V21.4715ZM20.3247 21.6748H19.043V20.626H20.3247C20.6746 20.626 20.9066 20.7724 20.9066 21.1219C20.9066 21.4715 20.6746 21.6748 20.3247 21.6748V21.6748ZM16.5651 21.8211L18.0787 20.2195V23.5081L16.5651 21.8211ZM14.2092 23.0122H11.7923V22.1992H13.9488V21.3862H11.7923V20.6301H14.2377L15.3159 21.8211L14.2092 23.0122V23.0122ZM35.29 16.8455H33.8944L32.0593 13.7927V16.8455H30.0778L29.6994 15.9431H27.6609L27.2825 16.8455H26.1473C25.6834 16.8455 25.069 16.7276 24.7191 16.378C24.3977 16.0285 24.2227 15.565 24.2227 14.8374C24.2227 14.2276 24.3081 13.6748 24.7476 13.2358C25.0405 12.9146 25.5614 12.7724 26.2327 12.7724H27.1645V13.6463H26.2327C25.8828 13.6463 25.6794 13.7033 25.4759 13.878C25.3009 14.0528 25.2155 14.374 25.2155 14.8089C25.2155 15.2439 25.3009 15.565 25.4759 15.7683C25.6224 15.9146 25.8828 15.9715 26.1473 15.9715H26.5826L27.9783 12.7724H29.4349L31.0665 16.6138V12.7724H32.5802L34.2972 15.5935V12.7724H35.286L35.29 16.8455V16.8455ZM23.7304 12.7724H22.7416V16.8455H23.7304V12.7724ZM21.6634 12.9472C21.3419 12.7724 20.992 12.7724 20.4997 12.7724H18.2577V16.8455H19.218V15.3618H20.2637C20.6136 15.3618 20.8455 15.3902 20.992 15.5366C21.167 15.7398 21.1385 16.0894 21.1385 16.3211V16.8455H22.1272V16.0325C22.1272 15.6829 22.0987 15.5081 21.9523 15.3049C21.8668 15.187 21.6919 15.0447 21.4884 14.9553C21.7488 14.8374 22.1883 14.5203 22.1883 13.878C22.1883 13.4106 21.9848 13.1504 21.6634 12.9472ZM17.5579 16H15.2874V15.187H17.5294V14.3415H15.2874V13.6138H17.5579V12.7683H14.2946V16.8415H17.5579V16ZM13.5663 12.7724H11.9632L10.771 15.5366L9.4893 12.7724H7.91871V16.6138L6.25861 12.7724H4.80195L3.05641 16.8455H4.10618L4.48458 15.9431H6.52309L6.90149 16.8455H8.88303V13.6463L10.3112 16.8455H11.1494L12.5776 13.6463V16.8455H13.5663V12.7724V12.7724ZM29.3495 15.0691L28.6781 13.4675L28.0067 15.0691H29.3495ZM20.9066 14.4309C20.7601 14.5163 20.6136 14.5163 20.4102 14.5163H19.218V13.6138H20.4102C20.5851 13.6138 20.7886 13.6138 20.9066 13.6707C21.0246 13.7561 21.0815 13.874 21.0815 14.0488C21.0815 14.2236 21.0205 14.374 20.9066 14.4309ZM4.83044 15.0691L5.5018 13.4675L6.17316 15.0691H4.83044ZM37.768 0H3.02792V14.6626L4.2201 11.9553H6.75501L7.10494 12.626V11.9553H10.0752L10.7466 13.4106L11.3854 11.9553H20.8496C21.285 11.9553 21.6634 12.0406 21.9563 12.2764V11.9553H24.5482V12.2764C24.9836 12.0447 25.5369 11.9553 26.1798 11.9553H29.9354L30.2853 12.626V11.9553H33.0522L33.459 12.626V11.9553H36.1689V17.6585H33.4306L32.9057 16.7846V17.6585H29.5L29.1216 16.7276H28.2753L27.8969 17.6585H26.1188C25.4189 17.6585 24.8941 17.4837 24.5482 17.3089V17.6585H20.3247V16.3496C20.3247 16.1748 20.2962 16.1463 20.1782 16.1463H20.0318V17.6585H11.8777V16.9309L11.5848 17.6585H9.8677L9.57474 16.9593V17.6585H6.28302L5.9331 16.7276H5.08677L4.70837 17.6585H3.02792V34.8537H37.768V24.4106C37.3896 24.5854 36.8647 24.6707 36.3398 24.6707H33.8049V24.3211C33.5119 24.5528 32.9911 24.6707 32.4947 24.6707H24.5157V23.3618C24.5157 23.187 24.4872 23.187 24.3407 23.187H24.1942V24.6707H21.5739V23.1301C21.1385 23.3333 20.6421 23.3333 20.2067 23.3333H19.9138V24.6707H16.7116L15.9547 23.7967L15.1084 24.6707H9.95722V18.9675H15.1979L15.9547 19.8415L16.7685 18.9675H20.2922C20.699 18.9675 21.3704 19.0244 21.6593 19.3171V18.9675H24.8045C25.126 18.9675 25.7363 19.0244 26.1432 19.3171V18.9675H30.8916V19.3171C31.152 19.0854 31.6484 18.9675 32.0838 18.9675H34.7326V19.3171C35.0256 19.1138 35.4324 18.9675 35.9573 18.9675H37.7639V0H37.768Z" fill="#D8D8D8"/>
</svg>
