<svg width="41" height="21" viewBox="0 0 41 21" fill="none" xmlns="http://www.w3.org/2000/svg">
<path fill-rule="evenodd" clip-rule="evenodd" d="M12.9321 15.0701L12.7703 14.9721C12.3201 15.6932 11.6307 16.2812 10.7513 16.6592C9.08414 17.3872 7.53653 17.1982 6.42507 16.2252L6.32658 16.3792H6.31955L4.42725 19.2143C4.89856 19.5433 5.40505 19.8164 5.93265 20.0404C8.02895 20.9084 10.1675 20.8734 12.2778 19.9494C13.8043 19.2913 15.0002 18.2763 15.8233 17.0022L12.9321 15.0701ZM7.01598 8.07678C5.25029 8.83281 4.34283 10.4849 4.53277 12.424L12.0035 9.21083C10.7162 7.70576 9.04897 7.20873 7.01598 8.07678ZM2.05659 16.7152C1.84556 16.3652 1.65562 16.0012 1.48679 15.6232C0.621537 13.6211 0.586364 11.5559 1.31093 9.56785C2.11287 7.39074 3.63937 5.71766 5.61609 4.87062C8.0993 3.79956 10.8498 4.00957 13.2275 5.42364C14.7399 6.29169 15.8092 7.62875 16.6252 9.52585C16.7307 9.77086 16.8222 10.0299 16.9066 10.2469L2.05659 16.7152V16.7152ZM22.1052 0.691406V16.4492L24.5602 17.4432L23.1674 20.6914L20.4591 19.5713C19.8541 19.3053 19.439 18.9063 19.1225 18.4513C18.82 17.9893 18.6019 17.3522 18.6019 16.4982V0.691406H22.1052V0.691406ZM28.4574 12.438C28.4574 13.7261 29.0061 14.9511 29.9768 15.7982L27.4655 18.6053C25.6928 17.0372 24.6868 14.7901 24.6939 12.438C24.6939 10.0789 25.7069 7.83876 27.4796 6.27769L29.9909 9.07783C29.0131 9.92487 28.4574 11.1499 28.4574 12.438V12.438ZM32.9243 16.9112C35.084 16.9112 36.8848 15.3851 37.3069 13.348L41 14.1041C40.2333 17.8563 36.9059 20.6844 32.9243 20.6774C32.038 20.6774 31.1516 20.5304 30.3075 20.2504L31.5104 16.6802C31.9536 16.8272 32.4249 16.9112 32.9243 16.9112ZM32.9314 4.20558C36.9129 4.20558 40.2403 7.04072 41 10.7999L37.3069 11.5489C36.8918 9.46985 35.0558 7.97177 32.9314 7.97177C32.453 7.97177 31.9676 8.04877 31.5174 8.20278L30.3286 4.6326C31.1657 4.34559 32.045 4.20558 32.9314 4.20558Z" fill="black" fill-opacity="0.5"/>
<path fill-rule="evenodd" clip-rule="evenodd" d="M12.9321 15.0701L12.7703 14.9721C12.3201 15.6932 11.6307 16.2812 10.7513 16.6592C9.08414 17.3872 7.53653 17.1982 6.42507 16.2252L6.32658 16.3792H6.31955L4.42725 19.2143C4.89856 19.5433 5.40505 19.8164 5.93265 20.0404C8.02895 20.9084 10.1675 20.8734 12.2778 19.9494C13.8043 19.2913 15.0002 18.2763 15.8233 17.0022L12.9321 15.0701ZM7.01598 8.07678C5.25029 8.83281 4.34283 10.4849 4.53277 12.424L12.0035 9.21083C10.7162 7.70576 9.04897 7.20873 7.01598 8.07678ZM2.05659 16.7152C1.84556 16.3652 1.65562 16.0012 1.48679 15.6232C0.621537 13.6211 0.586364 11.5559 1.31093 9.56785C2.11287 7.39074 3.63937 5.71766 5.61609 4.87062C8.0993 3.79956 10.8498 4.00957 13.2275 5.42364C14.7399 6.29169 15.8092 7.62875 16.6252 9.52585C16.7307 9.77086 16.8222 10.0299 16.9066 10.2469L2.05659 16.7152V16.7152ZM22.1052 0.691406V16.4492L24.5602 17.4432L23.1674 20.6914L20.4591 19.5713C19.8541 19.3053 19.439 18.9063 19.1225 18.4513C18.82 17.9893 18.6019 17.3522 18.6019 16.4982V0.691406H22.1052V0.691406ZM28.4574 12.438C28.4574 13.7261 29.0061 14.9511 29.9768 15.7982L27.4655 18.6053C25.6928 17.0372 24.6868 14.7901 24.6939 12.438C24.6939 10.0789 25.7069 7.83876 27.4796 6.27769L29.9909 9.07783C29.0131 9.92487 28.4574 11.1499 28.4574 12.438V12.438ZM32.9243 16.9112C35.084 16.9112 36.8848 15.3851 37.3069 13.348L41 14.1041C40.2333 17.8563 36.9059 20.6844 32.9243 20.6774C32.038 20.6774 31.1516 20.5304 30.3075 20.2504L31.5104 16.6802C31.9536 16.8272 32.4249 16.9112 32.9243 16.9112ZM32.9314 4.20558C36.9129 4.20558 40.2403 7.04072 41 10.7999L37.3069 11.5489C36.8918 9.46985 35.0558 7.97177 32.9314 7.97177C32.453 7.97177 31.9676 8.04877 31.5174 8.20278L30.3286 4.6326C31.1657 4.34559 32.045 4.20558 32.9314 4.20558Z" fill="#CECCCC"/>
</svg>
